<?xml version="1.0" standalone="no"?><svg xmlns="http://www.w3.org/2000/svg" viewBox="0 0 1440 320"><path fill="#ffffff" fill-opacity="1" d="M0,32L30,48C60,64,120,96,180,144C240,192,300,256,360,245.3C420,235,480,149,540,122.7C600,96,660,128,720,165.3C780,203,840,245,900,224C960,203,1020,117,1080,117.3C1140,117,1200,203,1260,208C1320,213,1380,139,1410,101.3L1440,64L1440,320L1410,320C1380,320,1320,320,1260,320C1200,320,1140,320,1080,320C1020,320,960,320,900,320C840,320,780,320,720,320C660,320,600,320,540,320C480,320,420,320,360,320C300,320,240,320,180,320C120,320,60,320,30,320L0,320Z"></path></svg>