<?xml version="1.0" standalone="no"?><svg xmlns="http://www.w3.org/2000/svg" viewBox="0 0 1440 320"><path fill="#5000ca" fill-opacity="1" d="M0,0L30,32C60,64,120,128,180,154.7C240,181,300,171,360,154.7C420,139,480,117,540,128C600,139,660,181,720,186.7C780,192,840,160,900,170.7C960,181,1020,235,1080,218.7C1140,203,1200,117,1260,74.7C1320,32,1380,32,1410,32L1440,32L1440,320L1410,320C1380,320,1320,320,1260,320C1200,320,1140,320,1080,320C1020,320,960,320,900,320C840,320,780,320,720,320C660,320,600,320,540,320C480,320,420,320,360,320C300,320,240,320,180,320C120,320,60,320,30,320L0,320Z"></path></svg>